<svg id="svg" version="1.1" width="400" height="256.2899786780384" viewBox="0 0 400 256.2899786780384" xmlns="http://www.w3.org/2000/svg" xmlns:xlink="http://www.w3.org/1999/xlink" ><g id="svgg"><path id="path0" d="M0.000 111.902 C 0.000 223.913,0.004 224.615,0.668 224.615 C 0.865 224.615,1.026 224.731,1.026 224.872 C 1.026 225.013,1.228 225.129,1.474 225.130 C 1.721 225.131,2.254 225.304,2.658 225.514 C 3.061 225.725,3.539 225.897,3.718 225.897 C 3.897 225.897,4.374 226.070,4.778 226.280 C 5.182 226.491,5.715 226.664,5.962 226.665 C 6.208 226.666,6.410 226.782,6.410 226.923 C 6.410 227.064,6.625 227.179,6.888 227.179 C 7.483 227.179,8.718 228.382,8.718 228.961 C 8.718 229.896,9.684 230.513,11.149 230.513 C 11.911 230.513,12.605 230.628,12.692 230.769 C 12.779 230.910,13.190 231.026,13.605 231.026 C 14.020 231.026,14.359 231.141,14.359 231.282 C 14.359 231.423,14.538 231.538,14.758 231.538 C 15.154 231.538,16.844 232.285,17.816 232.889 C 18.599 233.376,20.256 235.154,20.256 235.507 C 20.256 235.681,20.545 236.134,20.897 236.514 C 21.250 236.895,21.538 237.265,21.538 237.338 C 21.538 237.533,22.917 239.345,23.141 239.444 C 23.247 239.491,23.333 239.675,23.333 239.852 C 23.333 240.308,24.840 242.020,27.887 245.027 L 30.518 247.623 33.657 247.776 C 37.512 247.964,40.525 248.332,40.738 248.641 C 41.454 249.681,42.288 249.744,55.487 249.744 C 62.482 249.744,68.205 249.836,68.205 249.949 C 68.205 250.193,70.443 251.029,71.090 251.027 C 71.337 251.026,71.538 251.129,71.538 251.256 C 71.538 251.647,73.706 251.824,80.715 252.005 C 84.708 252.108,87.530 252.284,87.638 252.436 C 87.901 252.806,89.676 253.590,90.250 253.590 C 90.519 253.590,90.810 253.705,90.897 253.846 C 90.985 253.987,91.309 254.103,91.618 254.104 C 91.927 254.105,92.510 254.278,92.914 254.489 C 93.318 254.699,93.866 254.872,94.132 254.872 C 94.398 254.872,94.615 254.972,94.615 255.095 C 94.615 255.218,95.219 255.399,95.957 255.496 C 96.694 255.594,97.377 255.802,97.474 255.959 C 97.571 256.115,98.626 256.295,99.820 256.357 L 101.990 256.471 103.017 255.444 C 103.582 254.879,104.146 254.236,104.269 254.016 C 104.542 253.529,107.133 252.821,108.644 252.821 C 109.249 252.821,109.744 252.705,109.744 252.564 C 109.744 252.423,110.006 252.308,110.328 252.308 C 110.907 252.308,112.010 251.691,112.363 251.169 C 112.580 250.849,118.253 250.946,118.458 251.272 C 118.530 251.388,119.571 251.549,120.769 251.630 C 121.968 251.712,123.439 251.852,124.038 251.942 C 125.122 252.104,125.128 252.100,125.128 251.309 C 125.128 250.871,125.244 250.513,125.385 250.513 C 125.526 250.513,125.641 250.307,125.641 250.056 C 125.641 249.570,126.472 248.388,127.286 247.714 C 127.557 247.491,128.101 246.990,128.496 246.603 C 128.890 246.215,129.286 245.897,129.376 245.897 C 129.545 245.897,131.109 245.241,131.820 244.873 C 132.045 244.756,133.314 244.584,134.640 244.491 C 137.010 244.325,137.740 244.161,139.446 243.408 C 140.936 242.752,147.646 243.030,148.452 243.782 C 148.793 244.099,149.156 244.359,149.261 244.359 C 149.365 244.359,149.607 244.503,149.799 244.679 C 151.671 246.399,154.795 245.788,157.656 243.141 C 158.483 242.376,160.557 242.696,160.983 243.654 C 161.030 243.760,161.491 243.847,162.009 243.848 C 162.526 243.848,163.353 243.953,163.846 244.079 C 164.340 244.206,170.345 244.382,177.191 244.470 L 189.638 244.631 191.362 243.020 C 193.031 241.461,193.846 240.331,193.846 239.577 C 193.846 239.163,194.528 238.047,195.189 237.380 C 195.434 237.132,196.097 236.856,196.663 236.766 C 197.229 236.675,197.692 236.500,197.692 236.377 C 197.692 236.254,197.823 236.154,197.983 236.154 C 198.144 236.154,198.542 235.865,198.869 235.513 C 199.196 235.160,199.750 234.872,200.101 234.872 C 200.452 234.872,200.800 234.773,200.875 234.652 C 200.950 234.531,201.733 234.366,202.615 234.286 C 203.496 234.206,204.259 234.017,204.310 233.865 C 204.360 233.714,204.600 233.590,204.842 233.590 C 205.084 233.590,205.392 233.482,205.526 233.351 C 205.660 233.220,207.705 233.030,210.072 232.930 C 212.438 232.829,214.436 232.648,214.510 232.527 C 214.721 232.186,215.763 232.268,216.573 232.691 C 218.267 233.574,219.604 233.177,221.650 231.185 C 223.433 229.450,223.885 229.163,225.046 229.033 C 225.655 228.964,226.154 228.807,226.154 228.685 C 226.154 228.562,226.493 228.462,226.908 228.462 C 227.323 228.462,227.728 228.354,227.809 228.223 C 227.890 228.092,228.590 227.906,229.363 227.809 C 230.136 227.712,230.769 227.531,230.769 227.406 C 230.769 227.282,231.173 227.179,231.667 227.179 C 232.160 227.179,232.564 227.081,232.564 226.960 C 232.564 226.839,233.285 226.664,234.167 226.572 C 235.048 226.480,235.808 226.291,235.855 226.151 C 235.902 226.012,236.219 225.897,236.560 225.897 C 236.901 225.897,237.179 225.793,237.179 225.665 C 237.179 225.537,237.756 225.353,238.461 225.256 C 239.166 225.159,239.808 224.976,239.887 224.848 C 239.966 224.720,240.305 224.615,240.641 224.615 C 240.977 224.615,241.317 224.510,241.396 224.381 C 241.476 224.253,242.002 224.069,242.565 223.974 C 243.129 223.879,243.590 223.696,243.590 223.567 C 243.590 223.439,243.821 223.333,244.103 223.333 C 244.385 223.333,244.615 223.237,244.615 223.120 C 244.615 222.656,246.351 222.363,247.416 222.647 C 247.991 222.801,248.462 223.018,248.462 223.130 C 248.462 223.242,248.685 223.333,248.959 223.333 C 249.233 223.333,249.521 223.437,249.600 223.565 C 249.678 223.692,250.435 223.876,251.282 223.974 C 252.128 224.073,252.821 224.257,252.821 224.384 C 252.821 224.511,253.042 224.615,253.312 224.615 C 253.582 224.615,253.851 224.760,253.910 224.936 C 253.989 225.173,255.020 225.256,257.893 225.256 C 260.652 225.256,261.862 225.164,262.090 224.936 C 262.266 224.760,262.608 224.615,262.850 224.615 C 263.093 224.615,263.340 224.471,263.399 224.295 C 263.540 223.881,272.892 223.933,273.031 224.348 C 273.080 224.495,273.606 224.615,274.201 224.615 C 274.796 224.615,275.399 224.732,275.541 224.875 C 275.684 225.017,277.467 225.249,279.503 225.389 C 285.006 225.768,286.410 225.921,286.410 226.145 C 286.410 226.255,286.766 226.417,287.201 226.504 C 287.636 226.591,288.312 226.890,288.702 227.168 C 289.093 227.447,289.891 227.751,290.476 227.844 C 291.060 227.938,291.538 228.115,291.538 228.238 C 291.538 228.361,291.760 228.462,292.031 228.462 C 292.301 228.462,292.849 228.627,293.248 228.830 C 295.348 229.895,296.918 230.513,297.526 230.513 C 297.899 230.513,298.205 230.628,298.205 230.769 C 298.205 230.910,298.775 231.026,299.472 231.026 C 300.169 231.026,300.800 231.124,300.874 231.244 C 300.948 231.364,301.848 231.533,302.873 231.619 C 303.898 231.705,304.777 231.895,304.826 232.041 C 304.875 232.188,305.129 232.308,305.391 232.308 C 305.653 232.308,305.936 232.420,306.021 232.557 C 306.106 232.694,306.750 232.882,307.452 232.975 C 308.155 233.068,308.791 233.245,308.867 233.367 C 308.943 233.490,309.215 233.590,309.473 233.590 C 309.731 233.590,310.272 233.762,310.676 233.973 C 311.080 234.183,311.612 234.357,311.859 234.357 C 312.106 234.358,312.308 234.474,312.308 234.615 C 312.308 234.756,312.647 234.872,313.062 234.872 C 313.477 234.872,313.879 234.974,313.957 235.100 C 314.034 235.225,314.416 235.407,314.805 235.503 C 315.194 235.600,315.744 235.879,316.026 236.123 C 316.308 236.367,317.028 236.791,317.625 237.066 C 318.223 237.340,318.713 237.644,318.715 237.741 C 318.717 237.838,319.237 237.995,319.872 238.090 C 320.506 238.185,321.026 238.353,321.026 238.463 C 321.026 238.953,326.810 239.447,327.262 238.995 C 327.597 238.660,328.888 238.627,329.086 238.948 C 329.165 239.075,330.037 239.260,331.025 239.359 C 332.012 239.458,332.821 239.643,332.821 239.770 C 332.821 239.896,333.801 240.000,335.000 240.000 C 336.199 240.000,337.179 239.900,337.179 239.778 C 337.179 239.655,339.343 239.475,341.987 239.376 C 346.375 239.212,348.344 238.926,348.736 238.394 C 348.934 238.126,351.969 237.669,354.551 237.520 C 355.715 237.453,356.667 237.291,356.667 237.161 C 356.667 237.030,356.835 236.923,357.041 236.923 C 357.247 236.923,357.873 236.462,358.432 235.897 C 358.990 235.333,359.571 234.872,359.723 234.872 C 359.876 234.872,360.000 234.767,360.000 234.638 C 360.000 234.509,360.480 234.323,361.067 234.224 C 361.992 234.068,364.758 232.577,365.128 232.036 C 365.277 231.819,367.975 231.298,369.936 231.108 C 370.676 231.037,371.282 230.887,371.282 230.775 C 371.282 230.663,371.799 230.494,372.430 230.399 C 373.061 230.304,373.645 230.118,373.727 229.985 C 373.809 229.852,374.216 229.744,374.631 229.744 C 375.045 229.744,375.385 229.642,375.385 229.517 C 375.385 229.393,376.249 229.210,377.306 229.111 C 378.363 229.012,379.293 228.825,379.372 228.696 C 379.452 228.567,379.857 228.462,380.272 228.462 C 380.686 228.462,381.026 228.362,381.026 228.241 C 381.026 228.119,381.623 227.949,382.352 227.863 C 383.082 227.777,383.797 227.587,383.942 227.443 C 384.087 227.298,384.413 227.179,384.667 227.179 C 384.921 227.179,385.128 227.064,385.128 226.923 C 385.128 226.782,385.330 226.666,385.577 226.665 C 385.824 226.664,386.356 226.491,386.760 226.280 C 387.164 226.070,387.654 225.897,387.850 225.897 C 388.045 225.897,388.205 225.795,388.205 225.669 C 388.205 225.543,388.494 225.368,388.846 225.279 C 389.199 225.191,389.487 225.005,389.487 224.867 C 389.487 224.729,389.776 224.615,390.128 224.615 C 390.481 224.615,390.769 224.516,390.769 224.395 C 390.769 224.151,394.033 223.624,396.795 223.424 C 397.782 223.352,398.699 223.187,398.833 223.057 C 398.967 222.927,399.285 222.821,399.538 222.821 C 399.982 222.821,400.000 218.523,400.000 111.410 L 400.000 0.000 200.000 0.000 L 0.000 0.000 0.000 111.902 " stroke="none" fill="#ffffff" fill-rule="evenodd"></path><path id="path1" d="M0.000 111.902 C 0.000 223.913,0.004 224.615,0.668 224.615 C 0.865 224.615,1.026 224.731,1.026 224.872 C 1.026 225.013,1.228 225.129,1.474 225.130 C 1.721 225.131,2.254 225.304,2.658 225.514 C 3.061 225.725,3.539 225.897,3.718 225.897 C 3.897 225.897,4.374 226.070,4.778 226.280 C 5.182 226.491,5.715 226.664,5.962 226.665 C 6.208 226.666,6.410 226.782,6.410 226.923 C 6.410 227.064,6.625 227.179,6.888 227.179 C 7.483 227.179,8.718 228.382,8.718 228.961 C 8.718 229.896,9.684 230.513,11.149 230.513 C 11.911 230.513,12.605 230.628,12.692 230.769 C 12.779 230.910,13.190 231.026,13.605 231.026 C 14.020 231.026,14.359 231.141,14.359 231.282 C 14.359 231.423,14.538 231.538,14.758 231.538 C 15.154 231.538,16.844 232.285,17.816 232.889 C 18.599 233.376,20.256 235.154,20.256 235.507 C 20.256 235.681,20.545 236.134,20.897 236.514 C 21.250 236.895,21.538 237.265,21.538 237.338 C 21.538 237.533,22.917 239.345,23.141 239.444 C 23.247 239.491,23.333 239.675,23.333 239.852 C 23.333 240.308,24.840 242.020,27.887 245.027 L 30.518 247.623 33.657 247.776 C 37.512 247.964,40.525 248.332,40.738 248.641 C 41.454 249.681,42.288 249.744,55.487 249.744 C 62.482 249.744,68.205 249.836,68.205 249.949 C 68.205 250.193,70.443 251.029,71.090 251.027 C 71.337 251.026,71.538 251.129,71.538 251.256 C 71.538 251.647,73.706 251.824,80.715 252.005 C 84.708 252.108,87.530 252.284,87.638 252.436 C 87.901 252.806,89.676 253.590,90.250 253.590 C 90.519 253.590,90.810 253.705,90.897 253.846 C 90.985 253.987,91.309 254.103,91.618 254.104 C 91.927 254.105,92.510 254.278,92.914 254.489 C 93.318 254.699,93.866 254.872,94.132 254.872 C 94.398 254.872,94.615 254.972,94.615 255.095 C 94.615 255.218,95.219 255.399,95.957 255.496 C 96.694 255.594,97.377 255.802,97.474 255.959 C 97.571 256.115,98.626 256.295,99.820 256.357 L 101.990 256.471 103.017 255.444 C 103.582 254.879,104.146 254.236,104.269 254.016 C 104.542 253.529,107.133 252.821,108.644 252.821 C 109.249 252.821,109.744 252.705,109.744 252.564 C 109.744 252.423,110.006 252.308,110.328 252.308 C 110.907 252.308,112.010 251.691,112.363 251.169 C 112.580 250.849,118.253 250.946,118.458 251.272 C 118.530 251.388,119.571 251.549,120.769 251.630 C 121.968 251.712,123.439 251.852,124.038 251.942 C 125.122 252.104,125.128 252.100,125.128 251.309 C 125.128 250.871,125.244 250.513,125.385 250.513 C 125.526 250.513,125.641 250.307,125.641 250.056 C 125.641 249.570,126.472 248.388,127.286 247.714 C 127.557 247.491,128.101 246.990,128.496 246.603 C 128.890 246.215,129.286 245.897,129.376 245.897 C 129.545 245.897,131.109 245.241,131.820 244.873 C 132.045 244.756,133.314 244.584,134.640 244.491 C 137.010 244.325,137.740 244.161,139.446 243.408 C 140.936 242.752,147.646 243.030,148.452 243.782 C 148.793 244.099,149.156 244.359,149.261 244.359 C 149.365 244.359,149.607 244.503,149.799 244.679 C 151.671 246.399,154.795 245.788,157.656 243.141 C 158.483 242.376,160.557 242.696,160.983 243.654 C 161.030 243.760,161.491 243.847,162.009 243.848 C 162.526 243.848,163.353 243.953,163.846 244.079 C 164.340 244.206,170.345 244.382,177.191 244.470 L 189.638 244.631 191.362 243.020 C 193.031 241.461,193.846 240.331,193.846 239.577 C 193.846 239.163,194.528 238.047,195.189 237.380 C 195.434 237.132,196.097 236.856,196.663 236.766 C 197.229 236.675,197.692 236.500,197.692 236.377 C 197.692 236.254,197.823 236.154,197.983 236.154 C 198.144 236.154,198.542 235.865,198.869 235.513 C 199.196 235.160,199.750 234.872,200.101 234.872 C 200.452 234.872,200.800 234.773,200.875 234.652 C 200.950 234.531,201.733 234.366,202.615 234.286 C 203.496 234.206,204.259 234.017,204.310 233.865 C 204.360 233.714,204.600 233.590,204.842 233.590 C 205.084 233.590,205.392 233.482,205.526 233.351 C 205.660 233.220,207.705 233.030,210.072 232.930 C 212.438 232.829,214.436 232.648,214.510 232.527 C 214.721 232.186,215.763 232.268,216.573 232.691 C 218.267 233.574,219.604 233.177,221.650 231.185 C 223.433 229.450,223.885 229.163,225.046 229.033 C 225.655 228.964,226.154 228.807,226.154 228.685 C 226.154 228.562,226.493 228.462,226.908 228.462 C 227.323 228.462,227.728 228.354,227.809 228.223 C 227.890 228.092,228.590 227.906,229.363 227.809 C 230.136 227.712,230.769 227.531,230.769 227.406 C 230.769 227.282,231.173 227.179,231.667 227.179 C 232.160 227.179,232.564 227.081,232.564 226.960 C 232.564 226.839,233.285 226.664,234.167 226.572 C 235.048 226.480,235.808 226.291,235.855 226.151 C 235.902 226.012,236.219 225.897,236.560 225.897 C 236.901 225.897,237.179 225.793,237.179 225.665 C 237.179 225.537,237.756 225.353,238.461 225.256 C 239.166 225.159,239.808 224.976,239.887 224.848 C 239.966 224.720,240.305 224.615,240.641 224.615 C 240.977 224.615,241.317 224.510,241.396 224.381 C 241.476 224.253,242.002 224.069,242.565 223.974 C 243.129 223.879,243.590 223.696,243.590 223.567 C 243.590 223.439,243.821 223.333,244.103 223.333 C 244.385 223.333,244.615 223.237,244.615 223.120 C 244.615 222.656,246.351 222.363,247.416 222.647 C 247.991 222.801,248.462 223.018,248.462 223.130 C 248.462 223.242,248.685 223.333,248.959 223.333 C 249.233 223.333,249.521 223.437,249.600 223.565 C 249.678 223.692,250.435 223.876,251.282 223.974 C 252.128 224.073,252.821 224.257,252.821 224.384 C 252.821 224.511,253.042 224.615,253.312 224.615 C 253.582 224.615,253.851 224.760,253.910 224.936 C 253.989 225.173,255.020 225.256,257.893 225.256 C 260.652 225.256,261.862 225.164,262.090 224.936 C 262.266 224.760,262.608 224.615,262.850 224.615 C 263.093 224.615,263.340 224.471,263.399 224.295 C 263.540 223.881,272.892 223.933,273.031 224.348 C 273.080 224.495,273.606 224.615,274.201 224.615 C 274.796 224.615,275.399 224.732,275.541 224.875 C 275.684 225.017,277.467 225.249,279.503 225.389 C 285.006 225.768,286.410 225.921,286.410 226.145 C 286.410 226.255,286.766 226.417,287.201 226.504 C 287.636 226.591,288.312 226.890,288.702 227.168 C 289.093 227.447,289.891 227.751,290.476 227.844 C 291.060 227.938,291.538 228.115,291.538 228.238 C 291.538 228.361,291.760 228.462,292.031 228.462 C 292.301 228.462,292.849 228.627,293.248 228.830 C 295.348 229.895,296.918 230.513,297.526 230.513 C 297.899 230.513,298.205 230.628,298.205 230.769 C 298.205 230.910,298.775 231.026,299.472 231.026 C 300.169 231.026,300.800 231.124,300.874 231.244 C 300.948 231.364,301.848 231.533,302.873 231.619 C 303.898 231.705,304.777 231.895,304.826 232.041 C 304.875 232.188,305.129 232.308,305.391 232.308 C 305.653 232.308,305.936 232.420,306.021 232.557 C 306.106 232.694,306.750 232.882,307.452 232.975 C 308.155 233.068,308.791 233.245,308.867 233.367 C 308.943 233.490,309.215 233.590,309.473 233.590 C 309.731 233.590,310.272 233.762,310.676 233.973 C 311.080 234.183,311.612 234.357,311.859 234.357 C 312.106 234.358,312.308 234.474,312.308 234.615 C 312.308 234.756,312.647 234.872,313.062 234.872 C 313.477 234.872,313.879 234.974,313.957 235.100 C 314.034 235.225,314.416 235.407,314.805 235.503 C 315.194 235.600,315.744 235.879,316.026 236.123 C 316.308 236.367,317.028 236.791,317.625 237.066 C 318.223 237.340,318.713 237.644,318.715 237.741 C 318.717 237.838,319.237 237.995,319.872 238.090 C 320.506 238.185,321.026 238.353,321.026 238.463 C 321.026 238.953,326.810 239.447,327.262 238.995 C 327.597 238.660,328.888 238.627,329.086 238.948 C 329.165 239.075,330.037 239.260,331.025 239.359 C 332.012 239.458,332.821 239.643,332.821 239.770 C 332.821 239.896,333.801 240.000,335.000 240.000 C 336.199 240.000,337.179 239.900,337.179 239.778 C 337.179 239.655,339.343 239.475,341.987 239.376 C 346.375 239.212,348.344 238.926,348.736 238.394 C 348.934 238.126,351.969 237.669,354.551 237.520 C 355.715 237.453,356.667 237.291,356.667 237.161 C 356.667 237.030,356.835 236.923,357.041 236.923 C 357.247 236.923,357.873 236.462,358.432 235.897 C 358.990 235.333,359.571 234.872,359.723 234.872 C 359.876 234.872,360.000 234.767,360.000 234.638 C 360.000 234.509,360.480 234.323,361.067 234.224 C 361.992 234.068,364.758 232.577,365.128 232.036 C 365.277 231.819,367.975 231.298,369.936 231.108 C 370.676 231.037,371.282 230.887,371.282 230.775 C 371.282 230.663,371.799 230.494,372.430 230.399 C 373.061 230.304,373.645 230.118,373.727 229.985 C 373.809 229.852,374.216 229.744,374.631 229.744 C 375.045 229.744,375.385 229.642,375.385 229.517 C 375.385 229.393,376.249 229.210,377.306 229.111 C 378.363 229.012,379.293 228.825,379.372 228.696 C 379.452 228.567,379.857 228.462,380.272 228.462 C 380.686 228.462,381.026 228.362,381.026 228.241 C 381.026 228.119,381.623 227.949,382.352 227.863 C 383.082 227.777,383.797 227.587,383.942 227.443 C 384.087 227.298,384.413 227.179,384.667 227.179 C 384.921 227.179,385.128 227.064,385.128 226.923 C 385.128 226.782,385.330 226.666,385.577 226.665 C 385.824 226.664,386.356 226.491,386.760 226.280 C 387.164 226.070,387.654 225.897,387.850 225.897 C 388.045 225.897,388.205 225.795,388.205 225.669 C 388.205 225.543,388.494 225.368,388.846 225.279 C 389.199 225.191,389.487 225.005,389.487 224.867 C 389.487 224.729,389.776 224.615,390.128 224.615 C 390.481 224.615,390.769 224.516,390.769 224.395 C 390.769 224.151,394.033 223.624,396.795 223.424 C 397.782 223.352,398.699 223.187,398.833 223.057 C 398.967 222.927,399.285 222.821,399.538 222.821 C 399.982 222.821,400.000 218.523,400.000 111.410 L 400.000 0.000 200.000 0.000 L 0.000 0.000 0.000 111.902 " stroke="none" fill="#ffffff" fill-rule="evenodd"></path><path id="path2" d="M0.000 111.902 C 0.000 223.913,0.004 224.615,0.668 224.615 C 0.865 224.615,1.026 224.731,1.026 224.872 C 1.026 225.013,1.228 225.129,1.474 225.130 C 1.721 225.131,2.254 225.304,2.658 225.514 C 3.061 225.725,3.539 225.897,3.718 225.897 C 3.897 225.897,4.374 226.070,4.778 226.280 C 5.182 226.491,5.715 226.664,5.962 226.665 C 6.208 226.666,6.410 226.782,6.410 226.923 C 6.410 227.064,6.625 227.179,6.888 227.179 C 7.483 227.179,8.718 228.382,8.718 228.961 C 8.718 229.896,9.684 230.513,11.149 230.513 C 11.911 230.513,12.605 230.628,12.692 230.769 C 12.779 230.910,13.190 231.026,13.605 231.026 C 14.020 231.026,14.359 231.141,14.359 231.282 C 14.359 231.423,14.538 231.538,14.758 231.538 C 15.154 231.538,16.844 232.285,17.816 232.889 C 18.599 233.376,20.256 235.154,20.256 235.507 C 20.256 235.681,20.545 236.134,20.897 236.514 C 21.250 236.895,21.538 237.265,21.538 237.338 C 21.538 237.533,22.917 239.345,23.141 239.444 C 23.247 239.491,23.333 239.675,23.333 239.852 C 23.333 240.308,24.840 242.020,27.887 245.027 L 30.518 247.623 33.657 247.776 C 37.512 247.964,40.525 248.332,40.738 248.641 C 41.454 249.681,42.288 249.744,55.487 249.744 C 62.482 249.744,68.205 249.836,68.205 249.949 C 68.205 250.193,70.443 251.029,71.090 251.027 C 71.337 251.026,71.538 251.129,71.538 251.256 C 71.538 251.647,73.706 251.824,80.715 252.005 C 84.708 252.108,87.530 252.284,87.638 252.436 C 87.901 252.806,89.676 253.590,90.250 253.590 C 90.519 253.590,90.810 253.705,90.897 253.846 C 90.985 253.987,91.309 254.103,91.618 254.104 C 91.927 254.105,92.510 254.278,92.914 254.489 C 93.318 254.699,93.866 254.872,94.132 254.872 C 94.398 254.872,94.615 254.972,94.615 255.095 C 94.615 255.218,95.219 255.399,95.957 255.496 C 96.694 255.594,97.377 255.802,97.474 255.959 C 97.571 256.115,98.626 256.295,99.820 256.357 L 101.990 256.471 103.017 255.444 C 103.582 254.879,104.146 254.236,104.269 254.016 C 104.542 253.529,107.133 252.821,108.644 252.821 C 109.249 252.821,109.744 252.705,109.744 252.564 C 109.744 252.423,110.006 252.308,110.328 252.308 C 110.907 252.308,112.010 251.691,112.363 251.169 C 112.580 250.849,118.253 250.946,118.458 251.272 C 118.530 251.388,119.571 251.549,120.769 251.630 C 121.968 251.712,123.439 251.852,124.038 251.942 C 125.122 252.104,125.128 252.100,125.128 251.309 C 125.128 250.871,125.244 250.513,125.385 250.513 C 125.526 250.513,125.641 250.307,125.641 250.056 C 125.641 249.570,126.472 248.388,127.286 247.714 C 127.557 247.491,128.101 246.990,128.496 246.603 C 128.890 246.215,129.286 245.897,129.376 245.897 C 129.545 245.897,131.109 245.241,131.820 244.873 C 132.045 244.756,133.314 244.584,134.640 244.491 C 137.010 244.325,137.740 244.161,139.446 243.408 C 140.936 242.752,147.646 243.030,148.452 243.782 C 148.793 244.099,149.156 244.359,149.261 244.359 C 149.365 244.359,149.607 244.503,149.799 244.679 C 151.671 246.399,154.795 245.788,157.656 243.141 C 158.483 242.376,160.557 242.696,160.983 243.654 C 161.030 243.760,161.491 243.847,162.009 243.848 C 162.526 243.848,163.353 243.953,163.846 244.079 C 164.340 244.206,170.345 244.382,177.191 244.470 L 189.638 244.631 191.362 243.020 C 193.031 241.461,193.846 240.331,193.846 239.577 C 193.846 239.163,194.528 238.047,195.189 237.380 C 195.434 237.132,196.097 236.856,196.663 236.766 C 197.229 236.675,197.692 236.500,197.692 236.377 C 197.692 236.254,197.823 236.154,197.983 236.154 C 198.144 236.154,198.542 235.865,198.869 235.513 C 199.196 235.160,199.750 234.872,200.101 234.872 C 200.452 234.872,200.800 234.773,200.875 234.652 C 200.950 234.531,201.733 234.366,202.615 234.286 C 203.496 234.206,204.259 234.017,204.310 233.865 C 204.360 233.714,204.600 233.590,204.842 233.590 C 205.084 233.590,205.392 233.482,205.526 233.351 C 205.660 233.220,207.705 233.030,210.072 232.930 C 212.438 232.829,214.436 232.648,214.510 232.527 C 214.721 232.186,215.763 232.268,216.573 232.691 C 218.267 233.574,219.604 233.177,221.650 231.185 C 223.433 229.450,223.885 229.163,225.046 229.033 C 225.655 228.964,226.154 228.807,226.154 228.685 C 226.154 228.562,226.493 228.462,226.908 228.462 C 227.323 228.462,227.728 228.354,227.809 228.223 C 227.890 228.092,228.590 227.906,229.363 227.809 C 230.136 227.712,230.769 227.531,230.769 227.406 C 230.769 227.282,231.173 227.179,231.667 227.179 C 232.160 227.179,232.564 227.081,232.564 226.960 C 232.564 226.839,233.285 226.664,234.167 226.572 C 235.048 226.480,235.808 226.291,235.855 226.151 C 235.902 226.012,236.219 225.897,236.560 225.897 C 236.901 225.897,237.179 225.793,237.179 225.665 C 237.179 225.537,237.756 225.353,238.461 225.256 C 239.166 225.159,239.808 224.976,239.887 224.848 C 239.966 224.720,240.305 224.615,240.641 224.615 C 240.977 224.615,241.317 224.510,241.396 224.381 C 241.476 224.253,242.002 224.069,242.565 223.974 C 243.129 223.879,243.590 223.696,243.590 223.567 C 243.590 223.439,243.821 223.333,244.103 223.333 C 244.385 223.333,244.615 223.237,244.615 223.120 C 244.615 222.656,246.351 222.363,247.416 222.647 C 247.991 222.801,248.462 223.018,248.462 223.130 C 248.462 223.242,248.685 223.333,248.959 223.333 C 249.233 223.333,249.521 223.437,249.600 223.565 C 249.678 223.692,250.435 223.876,251.282 223.974 C 252.128 224.073,252.821 224.257,252.821 224.384 C 252.821 224.511,253.042 224.615,253.312 224.615 C 253.582 224.615,253.851 224.760,253.910 224.936 C 253.989 225.173,255.020 225.256,257.893 225.256 C 260.652 225.256,261.862 225.164,262.090 224.936 C 262.266 224.760,262.608 224.615,262.850 224.615 C 263.093 224.615,263.340 224.471,263.399 224.295 C 263.540 223.881,272.892 223.933,273.031 224.348 C 273.080 224.495,273.606 224.615,274.201 224.615 C 274.796 224.615,275.399 224.732,275.541 224.875 C 275.684 225.017,277.467 225.249,279.503 225.389 C 285.006 225.768,286.410 225.921,286.410 226.145 C 286.410 226.255,286.766 226.417,287.201 226.504 C 287.636 226.591,288.312 226.890,288.702 227.168 C 289.093 227.447,289.891 227.751,290.476 227.844 C 291.060 227.938,291.538 228.115,291.538 228.238 C 291.538 228.361,291.760 228.462,292.031 228.462 C 292.301 228.462,292.849 228.627,293.248 228.830 C 295.348 229.895,296.918 230.513,297.526 230.513 C 297.899 230.513,298.205 230.628,298.205 230.769 C 298.205 230.910,298.775 231.026,299.472 231.026 C 300.169 231.026,300.800 231.124,300.874 231.244 C 300.948 231.364,301.848 231.533,302.873 231.619 C 303.898 231.705,304.777 231.895,304.826 232.041 C 304.875 232.188,305.129 232.308,305.391 232.308 C 305.653 232.308,305.936 232.420,306.021 232.557 C 306.106 232.694,306.750 232.882,307.452 232.975 C 308.155 233.068,308.791 233.245,308.867 233.367 C 308.943 233.490,309.215 233.590,309.473 233.590 C 309.731 233.590,310.272 233.762,310.676 233.973 C 311.080 234.183,311.612 234.357,311.859 234.357 C 312.106 234.358,312.308 234.474,312.308 234.615 C 312.308 234.756,312.647 234.872,313.062 234.872 C 313.477 234.872,313.879 234.974,313.957 235.100 C 314.034 235.225,314.416 235.407,314.805 235.503 C 315.194 235.600,315.744 235.879,316.026 236.123 C 316.308 236.367,317.028 236.791,317.625 237.066 C 318.223 237.340,318.713 237.644,318.715 237.741 C 318.717 237.838,319.237 237.995,319.872 238.090 C 320.506 238.185,321.026 238.353,321.026 238.463 C 321.026 238.953,326.810 239.447,327.262 238.995 C 327.597 238.660,328.888 238.627,329.086 238.948 C 329.165 239.075,330.037 239.260,331.025 239.359 C 332.012 239.458,332.821 239.643,332.821 239.770 C 332.821 239.896,333.801 240.000,335.000 240.000 C 336.199 240.000,337.179 239.900,337.179 239.778 C 337.179 239.655,339.343 239.475,341.987 239.376 C 346.375 239.212,348.344 238.926,348.736 238.394 C 348.934 238.126,351.969 237.669,354.551 237.520 C 355.715 237.453,356.667 237.291,356.667 237.161 C 356.667 237.030,356.835 236.923,357.041 236.923 C 357.247 236.923,357.873 236.462,358.432 235.897 C 358.990 235.333,359.571 234.872,359.723 234.872 C 359.876 234.872,360.000 234.767,360.000 234.638 C 360.000 234.509,360.480 234.323,361.067 234.224 C 361.992 234.068,364.758 232.577,365.128 232.036 C 365.277 231.819,367.975 231.298,369.936 231.108 C 370.676 231.037,371.282 230.887,371.282 230.775 C 371.282 230.663,371.799 230.494,372.430 230.399 C 373.061 230.304,373.645 230.118,373.727 229.985 C 373.809 229.852,374.216 229.744,374.631 229.744 C 375.045 229.744,375.385 229.642,375.385 229.517 C 375.385 229.393,376.249 229.210,377.306 229.111 C 378.363 229.012,379.293 228.825,379.372 228.696 C 379.452 228.567,379.857 228.462,380.272 228.462 C 380.686 228.462,381.026 228.362,381.026 228.241 C 381.026 228.119,381.623 227.949,382.352 227.863 C 383.082 227.777,383.797 227.587,383.942 227.443 C 384.087 227.298,384.413 227.179,384.667 227.179 C 384.921 227.179,385.128 227.064,385.128 226.923 C 385.128 226.782,385.330 226.666,385.577 226.665 C 385.824 226.664,386.356 226.491,386.760 226.280 C 387.164 226.070,387.654 225.897,387.850 225.897 C 388.045 225.897,388.205 225.795,388.205 225.669 C 388.205 225.543,388.494 225.368,388.846 225.279 C 389.199 225.191,389.487 225.005,389.487 224.867 C 389.487 224.729,389.776 224.615,390.128 224.615 C 390.481 224.615,390.769 224.516,390.769 224.395 C 390.769 224.151,394.033 223.624,396.795 223.424 C 397.782 223.352,398.699 223.187,398.833 223.057 C 398.967 222.927,399.285 222.821,399.538 222.821 C 399.982 222.821,400.000 218.523,400.000 111.410 L 400.000 0.000 200.000 0.000 L 0.000 0.000 0.000 111.902 " stroke="none" fill="#ffffff" fill-rule="evenodd"></path><path id="path3" d="M0.000 111.902 C 0.000 223.913,0.004 224.615,0.668 224.615 C 0.865 224.615,1.026 224.731,1.026 224.872 C 1.026 225.013,1.228 225.129,1.474 225.130 C 1.721 225.131,2.254 225.304,2.658 225.514 C 3.061 225.725,3.539 225.897,3.718 225.897 C 3.897 225.897,4.374 226.070,4.778 226.280 C 5.182 226.491,5.715 226.664,5.962 226.665 C 6.208 226.666,6.410 226.782,6.410 226.923 C 6.410 227.064,6.625 227.179,6.888 227.179 C 7.483 227.179,8.718 228.382,8.718 228.961 C 8.718 229.896,9.684 230.513,11.149 230.513 C 11.911 230.513,12.605 230.628,12.692 230.769 C 12.779 230.910,13.190 231.026,13.605 231.026 C 14.020 231.026,14.359 231.141,14.359 231.282 C 14.359 231.423,14.538 231.538,14.758 231.538 C 15.154 231.538,16.844 232.285,17.816 232.889 C 18.599 233.376,20.256 235.154,20.256 235.507 C 20.256 235.681,20.545 236.134,20.897 236.514 C 21.250 236.895,21.538 237.265,21.538 237.338 C 21.538 237.533,22.917 239.345,23.141 239.444 C 23.247 239.491,23.333 239.675,23.333 239.852 C 23.333 240.308,24.840 242.020,27.887 245.027 L 30.518 247.623 33.657 247.776 C 37.512 247.964,40.525 248.332,40.738 248.641 C 41.454 249.681,42.288 249.744,55.487 249.744 C 62.482 249.744,68.205 249.836,68.205 249.949 C 68.205 250.193,70.443 251.029,71.090 251.027 C 71.337 251.026,71.538 251.129,71.538 251.256 C 71.538 251.647,73.706 251.824,80.715 252.005 C 84.708 252.108,87.530 252.284,87.638 252.436 C 87.901 252.806,89.676 253.590,90.250 253.590 C 90.519 253.590,90.810 253.705,90.897 253.846 C 90.985 253.987,91.309 254.103,91.618 254.104 C 91.927 254.105,92.510 254.278,92.914 254.489 C 93.318 254.699,93.866 254.872,94.132 254.872 C 94.398 254.872,94.615 254.972,94.615 255.095 C 94.615 255.218,95.219 255.399,95.957 255.496 C 96.694 255.594,97.377 255.802,97.474 255.959 C 97.571 256.115,98.626 256.295,99.820 256.357 L 101.990 256.471 103.017 255.444 C 103.582 254.879,104.146 254.236,104.269 254.016 C 104.542 253.529,107.133 252.821,108.644 252.821 C 109.249 252.821,109.744 252.705,109.744 252.564 C 109.744 252.423,110.006 252.308,110.328 252.308 C 110.907 252.308,112.010 251.691,112.363 251.169 C 112.580 250.849,118.253 250.946,118.458 251.272 C 118.530 251.388,119.571 251.549,120.769 251.630 C 121.968 251.712,123.439 251.852,124.038 251.942 C 125.122 252.104,125.128 252.100,125.128 251.309 C 125.128 250.871,125.244 250.513,125.385 250.513 C 125.526 250.513,125.641 250.307,125.641 250.056 C 125.641 249.570,126.472 248.388,127.286 247.714 C 127.557 247.491,128.101 246.990,128.496 246.603 C 128.890 246.215,129.286 245.897,129.376 245.897 C 129.545 245.897,131.109 245.241,131.820 244.873 C 132.045 244.756,133.314 244.584,134.640 244.491 C 137.010 244.325,137.740 244.161,139.446 243.408 C 140.936 242.752,147.646 243.030,148.452 243.782 C 148.793 244.099,149.156 244.359,149.261 244.359 C 149.365 244.359,149.607 244.503,149.799 244.679 C 151.671 246.399,154.795 245.788,157.656 243.141 C 158.483 242.376,160.557 242.696,160.983 243.654 C 161.030 243.760,161.491 243.847,162.009 243.848 C 162.526 243.848,163.353 243.953,163.846 244.079 C 164.340 244.206,170.345 244.382,177.191 244.470 L 189.638 244.631 191.362 243.020 C 193.031 241.461,193.846 240.331,193.846 239.577 C 193.846 239.163,194.528 238.047,195.189 237.380 C 195.434 237.132,196.097 236.856,196.663 236.766 C 197.229 236.675,197.692 236.500,197.692 236.377 C 197.692 236.254,197.823 236.154,197.983 236.154 C 198.144 236.154,198.542 235.865,198.869 235.513 C 199.196 235.160,199.750 234.872,200.101 234.872 C 200.452 234.872,200.800 234.773,200.875 234.652 C 200.950 234.531,201.733 234.366,202.615 234.286 C 203.496 234.206,204.259 234.017,204.310 233.865 C 204.360 233.714,204.600 233.590,204.842 233.590 C 205.084 233.590,205.392 233.482,205.526 233.351 C 205.660 233.220,207.705 233.030,210.072 232.930 C 212.438 232.829,214.436 232.648,214.510 232.527 C 214.721 232.186,215.763 232.268,216.573 232.691 C 218.267 233.574,219.604 233.177,221.650 231.185 C 223.433 229.450,223.885 229.163,225.046 229.033 C 225.655 228.964,226.154 228.807,226.154 228.685 C 226.154 228.562,226.493 228.462,226.908 228.462 C 227.323 228.462,227.728 228.354,227.809 228.223 C 227.890 228.092,228.590 227.906,229.363 227.809 C 230.136 227.712,230.769 227.531,230.769 227.406 C 230.769 227.282,231.173 227.179,231.667 227.179 C 232.160 227.179,232.564 227.081,232.564 226.960 C 232.564 226.839,233.285 226.664,234.167 226.572 C 235.048 226.480,235.808 226.291,235.855 226.151 C 235.902 226.012,236.219 225.897,236.560 225.897 C 236.901 225.897,237.179 225.793,237.179 225.665 C 237.179 225.537,237.756 225.353,238.461 225.256 C 239.166 225.159,239.808 224.976,239.887 224.848 C 239.966 224.720,240.305 224.615,240.641 224.615 C 240.977 224.615,241.317 224.510,241.396 224.381 C 241.476 224.253,242.002 224.069,242.565 223.974 C 243.129 223.879,243.590 223.696,243.590 223.567 C 243.590 223.439,243.821 223.333,244.103 223.333 C 244.385 223.333,244.615 223.237,244.615 223.120 C 244.615 222.656,246.351 222.363,247.416 222.647 C 247.991 222.801,248.462 223.018,248.462 223.130 C 248.462 223.242,248.685 223.333,248.959 223.333 C 249.233 223.333,249.521 223.437,249.600 223.565 C 249.678 223.692,250.435 223.876,251.282 223.974 C 252.128 224.073,252.821 224.257,252.821 224.384 C 252.821 224.511,253.042 224.615,253.312 224.615 C 253.582 224.615,253.851 224.760,253.910 224.936 C 253.989 225.173,255.020 225.256,257.893 225.256 C 260.652 225.256,261.862 225.164,262.090 224.936 C 262.266 224.760,262.608 224.615,262.850 224.615 C 263.093 224.615,263.340 224.471,263.399 224.295 C 263.540 223.881,272.892 223.933,273.031 224.348 C 273.080 224.495,273.606 224.615,274.201 224.615 C 274.796 224.615,275.399 224.732,275.541 224.875 C 275.684 225.017,277.467 225.249,279.503 225.389 C 285.006 225.768,286.410 225.921,286.410 226.145 C 286.410 226.255,286.766 226.417,287.201 226.504 C 287.636 226.591,288.312 226.890,288.702 227.168 C 289.093 227.447,289.891 227.751,290.476 227.844 C 291.060 227.938,291.538 228.115,291.538 228.238 C 291.538 228.361,291.760 228.462,292.031 228.462 C 292.301 228.462,292.849 228.627,293.248 228.830 C 295.348 229.895,296.918 230.513,297.526 230.513 C 297.899 230.513,298.205 230.628,298.205 230.769 C 298.205 230.910,298.775 231.026,299.472 231.026 C 300.169 231.026,300.800 231.124,300.874 231.244 C 300.948 231.364,301.848 231.533,302.873 231.619 C 303.898 231.705,304.777 231.895,304.826 232.041 C 304.875 232.188,305.129 232.308,305.391 232.308 C 305.653 232.308,305.936 232.420,306.021 232.557 C 306.106 232.694,306.750 232.882,307.452 232.975 C 308.155 233.068,308.791 233.245,308.867 233.367 C 308.943 233.490,309.215 233.590,309.473 233.590 C 309.731 233.590,310.272 233.762,310.676 233.973 C 311.080 234.183,311.612 234.357,311.859 234.357 C 312.106 234.358,312.308 234.474,312.308 234.615 C 312.308 234.756,312.647 234.872,313.062 234.872 C 313.477 234.872,313.879 234.974,313.957 235.100 C 314.034 235.225,314.416 235.407,314.805 235.503 C 315.194 235.600,315.744 235.879,316.026 236.123 C 316.308 236.367,317.028 236.791,317.625 237.066 C 318.223 237.340,318.713 237.644,318.715 237.741 C 318.717 237.838,319.237 237.995,319.872 238.090 C 320.506 238.185,321.026 238.353,321.026 238.463 C 321.026 238.953,326.810 239.447,327.262 238.995 C 327.597 238.660,328.888 238.627,329.086 238.948 C 329.165 239.075,330.037 239.260,331.025 239.359 C 332.012 239.458,332.821 239.643,332.821 239.770 C 332.821 239.896,333.801 240.000,335.000 240.000 C 336.199 240.000,337.179 239.900,337.179 239.778 C 337.179 239.655,339.343 239.475,341.987 239.376 C 346.375 239.212,348.344 238.926,348.736 238.394 C 348.934 238.126,351.969 237.669,354.551 237.520 C 355.715 237.453,356.667 237.291,356.667 237.161 C 356.667 237.030,356.835 236.923,357.041 236.923 C 357.247 236.923,357.873 236.462,358.432 235.897 C 358.990 235.333,359.571 234.872,359.723 234.872 C 359.876 234.872,360.000 234.767,360.000 234.638 C 360.000 234.509,360.480 234.323,361.067 234.224 C 361.992 234.068,364.758 232.577,365.128 232.036 C 365.277 231.819,367.975 231.298,369.936 231.108 C 370.676 231.037,371.282 230.887,371.282 230.775 C 371.282 230.663,371.799 230.494,372.430 230.399 C 373.061 230.304,373.645 230.118,373.727 229.985 C 373.809 229.852,374.216 229.744,374.631 229.744 C 375.045 229.744,375.385 229.642,375.385 229.517 C 375.385 229.393,376.249 229.210,377.306 229.111 C 378.363 229.012,379.293 228.825,379.372 228.696 C 379.452 228.567,379.857 228.462,380.272 228.462 C 380.686 228.462,381.026 228.362,381.026 228.241 C 381.026 228.119,381.623 227.949,382.352 227.863 C 383.082 227.777,383.797 227.587,383.942 227.443 C 384.087 227.298,384.413 227.179,384.667 227.179 C 384.921 227.179,385.128 227.064,385.128 226.923 C 385.128 226.782,385.330 226.666,385.577 226.665 C 385.824 226.664,386.356 226.491,386.760 226.280 C 387.164 226.070,387.654 225.897,387.850 225.897 C 388.045 225.897,388.205 225.795,388.205 225.669 C 388.205 225.543,388.494 225.368,388.846 225.279 C 389.199 225.191,389.487 225.005,389.487 224.867 C 389.487 224.729,389.776 224.615,390.128 224.615 C 390.481 224.615,390.769 224.516,390.769 224.395 C 390.769 224.151,394.033 223.624,396.795 223.424 C 397.782 223.352,398.699 223.187,398.833 223.057 C 398.967 222.927,399.285 222.821,399.538 222.821 C 399.982 222.821,400.000 218.523,400.000 111.410 L 400.000 0.000 200.000 0.000 L 0.000 0.000 0.000 111.902 " stroke="none" fill="#ffffff" fill-rule="evenodd"></path><path id="path4" d="M0.000 111.902 C 0.000 223.913,0.004 224.615,0.668 224.615 C 0.865 224.615,1.026 224.731,1.026 224.872 C 1.026 225.013,1.228 225.129,1.474 225.130 C 1.721 225.131,2.254 225.304,2.658 225.514 C 3.061 225.725,3.539 225.897,3.718 225.897 C 3.897 225.897,4.374 226.070,4.778 226.280 C 5.182 226.491,5.715 226.664,5.962 226.665 C 6.208 226.666,6.410 226.782,6.410 226.923 C 6.410 227.064,6.625 227.179,6.888 227.179 C 7.483 227.179,8.718 228.382,8.718 228.961 C 8.718 229.896,9.684 230.513,11.149 230.513 C 11.911 230.513,12.605 230.628,12.692 230.769 C 12.779 230.910,13.190 231.026,13.605 231.026 C 14.020 231.026,14.359 231.141,14.359 231.282 C 14.359 231.423,14.538 231.538,14.758 231.538 C 15.154 231.538,16.844 232.285,17.816 232.889 C 18.599 233.376,20.256 235.154,20.256 235.507 C 20.256 235.681,20.545 236.134,20.897 236.514 C 21.250 236.895,21.538 237.265,21.538 237.338 C 21.538 237.533,22.917 239.345,23.141 239.444 C 23.247 239.491,23.333 239.675,23.333 239.852 C 23.333 240.308,24.840 242.020,27.887 245.027 L 30.518 247.623 33.657 247.776 C 37.512 247.964,40.525 248.332,40.738 248.641 C 41.454 249.681,42.288 249.744,55.487 249.744 C 62.482 249.744,68.205 249.836,68.205 249.949 C 68.205 250.193,70.443 251.029,71.090 251.027 C 71.337 251.026,71.538 251.129,71.538 251.256 C 71.538 251.647,73.706 251.824,80.715 252.005 C 84.708 252.108,87.530 252.284,87.638 252.436 C 87.901 252.806,89.676 253.590,90.250 253.590 C 90.519 253.590,90.810 253.705,90.897 253.846 C 90.985 253.987,91.309 254.103,91.618 254.104 C 91.927 254.105,92.510 254.278,92.914 254.489 C 93.318 254.699,93.866 254.872,94.132 254.872 C 94.398 254.872,94.615 254.972,94.615 255.095 C 94.615 255.218,95.219 255.399,95.957 255.496 C 96.694 255.594,97.377 255.802,97.474 255.959 C 97.571 256.115,98.626 256.295,99.820 256.357 L 101.990 256.471 103.017 255.444 C 103.582 254.879,104.146 254.236,104.269 254.016 C 104.542 253.529,107.133 252.821,108.644 252.821 C 109.249 252.821,109.744 252.705,109.744 252.564 C 109.744 252.423,110.006 252.308,110.328 252.308 C 110.907 252.308,112.010 251.691,112.363 251.169 C 112.580 250.849,118.253 250.946,118.458 251.272 C 118.530 251.388,119.571 251.549,120.769 251.630 C 121.968 251.712,123.439 251.852,124.038 251.942 C 125.122 252.104,125.128 252.100,125.128 251.309 C 125.128 250.871,125.244 250.513,125.385 250.513 C 125.526 250.513,125.641 250.307,125.641 250.056 C 125.641 249.570,126.472 248.388,127.286 247.714 C 127.557 247.491,128.101 246.990,128.496 246.603 C 128.890 246.215,129.286 245.897,129.376 245.897 C 129.545 245.897,131.109 245.241,131.820 244.873 C 132.045 244.756,133.314 244.584,134.640 244.491 C 137.010 244.325,137.740 244.161,139.446 243.408 C 140.936 242.752,147.646 243.030,148.452 243.782 C 148.793 244.099,149.156 244.359,149.261 244.359 C 149.365 244.359,149.607 244.503,149.799 244.679 C 151.671 246.399,154.795 245.788,157.656 243.141 C 158.483 242.376,160.557 242.696,160.983 243.654 C 161.030 243.760,161.491 243.847,162.009 243.848 C 162.526 243.848,163.353 243.953,163.846 244.079 C 164.340 244.206,170.345 244.382,177.191 244.470 L 189.638 244.631 191.362 243.020 C 193.031 241.461,193.846 240.331,193.846 239.577 C 193.846 239.163,194.528 238.047,195.189 237.380 C 195.434 237.132,196.097 236.856,196.663 236.766 C 197.229 236.675,197.692 236.500,197.692 236.377 C 197.692 236.254,197.823 236.154,197.983 236.154 C 198.144 236.154,198.542 235.865,198.869 235.513 C 199.196 235.160,199.750 234.872,200.101 234.872 C 200.452 234.872,200.800 234.773,200.875 234.652 C 200.950 234.531,201.733 234.366,202.615 234.286 C 203.496 234.206,204.259 234.017,204.310 233.865 C 204.360 233.714,204.600 233.590,204.842 233.590 C 205.084 233.590,205.392 233.482,205.526 233.351 C 205.660 233.220,207.705 233.030,210.072 232.930 C 212.438 232.829,214.436 232.648,214.510 232.527 C 214.721 232.186,215.763 232.268,216.573 232.691 C 218.267 233.574,219.604 233.177,221.650 231.185 C 223.433 229.450,223.885 229.163,225.046 229.033 C 225.655 228.964,226.154 228.807,226.154 228.685 C 226.154 228.562,226.493 228.462,226.908 228.462 C 227.323 228.462,227.728 228.354,227.809 228.223 C 227.890 228.092,228.590 227.906,229.363 227.809 C 230.136 227.712,230.769 227.531,230.769 227.406 C 230.769 227.282,231.173 227.179,231.667 227.179 C 232.160 227.179,232.564 227.081,232.564 226.960 C 232.564 226.839,233.285 226.664,234.167 226.572 C 235.048 226.480,235.808 226.291,235.855 226.151 C 235.902 226.012,236.219 225.897,236.560 225.897 C 236.901 225.897,237.179 225.793,237.179 225.665 C 237.179 225.537,237.756 225.353,238.461 225.256 C 239.166 225.159,239.808 224.976,239.887 224.848 C 239.966 224.720,240.305 224.615,240.641 224.615 C 240.977 224.615,241.317 224.510,241.396 224.381 C 241.476 224.253,242.002 224.069,242.565 223.974 C 243.129 223.879,243.590 223.696,243.590 223.567 C 243.590 223.439,243.821 223.333,244.103 223.333 C 244.385 223.333,244.615 223.237,244.615 223.120 C 244.615 222.656,246.351 222.363,247.416 222.647 C 247.991 222.801,248.462 223.018,248.462 223.130 C 248.462 223.242,248.685 223.333,248.959 223.333 C 249.233 223.333,249.521 223.437,249.600 223.565 C 249.678 223.692,250.435 223.876,251.282 223.974 C 252.128 224.073,252.821 224.257,252.821 224.384 C 252.821 224.511,253.042 224.615,253.312 224.615 C 253.582 224.615,253.851 224.760,253.910 224.936 C 253.989 225.173,255.020 225.256,257.893 225.256 C 260.652 225.256,261.862 225.164,262.090 224.936 C 262.266 224.760,262.608 224.615,262.850 224.615 C 263.093 224.615,263.340 224.471,263.399 224.295 C 263.540 223.881,272.892 223.933,273.031 224.348 C 273.080 224.495,273.606 224.615,274.201 224.615 C 274.796 224.615,275.399 224.732,275.541 224.875 C 275.684 225.017,277.467 225.249,279.503 225.389 C 285.006 225.768,286.410 225.921,286.410 226.145 C 286.410 226.255,286.766 226.417,287.201 226.504 C 287.636 226.591,288.312 226.890,288.702 227.168 C 289.093 227.447,289.891 227.751,290.476 227.844 C 291.060 227.938,291.538 228.115,291.538 228.238 C 291.538 228.361,291.760 228.462,292.031 228.462 C 292.301 228.462,292.849 228.627,293.248 228.830 C 295.348 229.895,296.918 230.513,297.526 230.513 C 297.899 230.513,298.205 230.628,298.205 230.769 C 298.205 230.910,298.775 231.026,299.472 231.026 C 300.169 231.026,300.800 231.124,300.874 231.244 C 300.948 231.364,301.848 231.533,302.873 231.619 C 303.898 231.705,304.777 231.895,304.826 232.041 C 304.875 232.188,305.129 232.308,305.391 232.308 C 305.653 232.308,305.936 232.420,306.021 232.557 C 306.106 232.694,306.750 232.882,307.452 232.975 C 308.155 233.068,308.791 233.245,308.867 233.367 C 308.943 233.490,309.215 233.590,309.473 233.590 C 309.731 233.590,310.272 233.762,310.676 233.973 C 311.080 234.183,311.612 234.357,311.859 234.357 C 312.106 234.358,312.308 234.474,312.308 234.615 C 312.308 234.756,312.647 234.872,313.062 234.872 C 313.477 234.872,313.879 234.974,313.957 235.100 C 314.034 235.225,314.416 235.407,314.805 235.503 C 315.194 235.600,315.744 235.879,316.026 236.123 C 316.308 236.367,317.028 236.791,317.625 237.066 C 318.223 237.340,318.713 237.644,318.715 237.741 C 318.717 237.838,319.237 237.995,319.872 238.090 C 320.506 238.185,321.026 238.353,321.026 238.463 C 321.026 238.953,326.810 239.447,327.262 238.995 C 327.597 238.660,328.888 238.627,329.086 238.948 C 329.165 239.075,330.037 239.260,331.025 239.359 C 332.012 239.458,332.821 239.643,332.821 239.770 C 332.821 239.896,333.801 240.000,335.000 240.000 C 336.199 240.000,337.179 239.900,337.179 239.778 C 337.179 239.655,339.343 239.475,341.987 239.376 C 346.375 239.212,348.344 238.926,348.736 238.394 C 348.934 238.126,351.969 237.669,354.551 237.520 C 355.715 237.453,356.667 237.291,356.667 237.161 C 356.667 237.030,356.835 236.923,357.041 236.923 C 357.247 236.923,357.873 236.462,358.432 235.897 C 358.990 235.333,359.571 234.872,359.723 234.872 C 359.876 234.872,360.000 234.767,360.000 234.638 C 360.000 234.509,360.480 234.323,361.067 234.224 C 361.992 234.068,364.758 232.577,365.128 232.036 C 365.277 231.819,367.975 231.298,369.936 231.108 C 370.676 231.037,371.282 230.887,371.282 230.775 C 371.282 230.663,371.799 230.494,372.430 230.399 C 373.061 230.304,373.645 230.118,373.727 229.985 C 373.809 229.852,374.216 229.744,374.631 229.744 C 375.045 229.744,375.385 229.642,375.385 229.517 C 375.385 229.393,376.249 229.210,377.306 229.111 C 378.363 229.012,379.293 228.825,379.372 228.696 C 379.452 228.567,379.857 228.462,380.272 228.462 C 380.686 228.462,381.026 228.362,381.026 228.241 C 381.026 228.119,381.623 227.949,382.352 227.863 C 383.082 227.777,383.797 227.587,383.942 227.443 C 384.087 227.298,384.413 227.179,384.667 227.179 C 384.921 227.179,385.128 227.064,385.128 226.923 C 385.128 226.782,385.330 226.666,385.577 226.665 C 385.824 226.664,386.356 226.491,386.760 226.280 C 387.164 226.070,387.654 225.897,387.850 225.897 C 388.045 225.897,388.205 225.795,388.205 225.669 C 388.205 225.543,388.494 225.368,388.846 225.279 C 389.199 225.191,389.487 225.005,389.487 224.867 C 389.487 224.729,389.776 224.615,390.128 224.615 C 390.481 224.615,390.769 224.516,390.769 224.395 C 390.769 224.151,394.033 223.624,396.795 223.424 C 397.782 223.352,398.699 223.187,398.833 223.057 C 398.967 222.927,399.285 222.821,399.538 222.821 C 399.982 222.821,400.000 218.523,400.000 111.410 L 400.000 0.000 200.000 0.000 L 0.000 0.000 0.000 111.902 " stroke="none" fill="#ffffff" fill-rule="evenodd"></path></g></svg>